<?xml version="1.0" encoding="utf-8"?>
<svg viewBox="0 0 499.996 499.996" style="enable-background:new 0 0 499.996 499.996;" xmlns="http://www.w3.org/2000/svg">
  <g>
    <g>
      <path d="M404.848,132.812H98.952c-4.316,0-7.812,3.5-7.812,7.812c0,4.312,3.496,7.812,7.812,7.812h305.896 c4.312,0,7.812-3.5,7.812-7.812C412.66,136.312,409.16,132.812,404.848,132.812z" style="fill: rgb(181, 182, 184);"/>
    </g>
  </g>
  <g>
    <g>
      <path d="M158.22,171.876H98.952c-4.316,0-7.812,3.5-7.812,7.812s3.496,7.812,7.812,7.812h59.268c4.312,0,7.812-3.5,7.812-7.812 S162.532,171.876,158.22,171.876z" style="fill: rgb(22, 161, 236);"/>
    </g>
  </g>
  <g>
    <g>
      <path d="M404.848,171.876H193.316c-4.312,0-7.812,3.5-7.812,7.812s3.5,7.812,7.812,7.812h211.532c4.312,0,7.812-3.5,7.812-7.812 S409.16,171.876,404.848,171.876z" style="fill: rgb(181, 182, 184);"/>
    </g>
  </g>
  <g>
    <g>
      <path d="M404.848,210.936H345.58c-4.316,0-7.812,3.5-7.812,7.812s3.496,7.812,7.812,7.812h59.268c4.312,0,7.812-3.5,7.812-7.812 S409.16,210.936,404.848,210.936z" style="fill: rgb(171, 43, 43);"/>
    </g>
  </g>
  <g>
    <g>
      <path d="M310.48,210.94H98.952c-4.316,0-7.812,3.5-7.812,7.812c0,4.312,3.496,7.812,7.812,7.812H310.48 c4.316,0,7.812-3.5,7.812-7.812C318.292,214.44,314.796,210.94,310.48,210.94z" style="fill: rgb(181, 182, 184);"/>
    </g>
  </g>
  <g>
    <g>
      <path d="M404.848,250H98.952c-4.316,0-7.812,3.5-7.812,7.812s3.496,7.812,7.812,7.812h305.896c4.312,0,7.812-3.5,7.812-7.812 S409.16,250,404.848,250z" style="fill: rgb(181, 182, 184);"/>
    </g>
  </g>
  <g>
    <g>
      <path d="M404.848,367.188H98.952c-4.316,0-7.812,3.5-7.812,7.812s3.496,7.812,7.812,7.812h305.896c4.312,0,7.812-3.5,7.812-7.812 S409.16,367.188,404.848,367.188z" style="fill: rgb(181, 182, 184);"/>
    </g>
  </g>
  <g>
    <g>
      <path d="M158.22,289.064H98.952c-4.316,0-7.812,3.5-7.812,7.812s3.496,7.812,7.812,7.812h59.268c4.312,0,7.812-3.5,7.812-7.812 S162.532,289.064,158.22,289.064z" style="fill: rgb(235, 179, 12);"/>
    </g>
  </g>
  <g>
    <g>
      <path d="M404.848,289.064H193.316c-4.312,0-7.812,3.5-7.812,7.812s3.5,7.812,7.812,7.812h211.532c4.312,0,7.812-3.5,7.812-7.812 S409.16,289.064,404.848,289.064z" style="fill: rgb(181, 182, 184);"/>
    </g>
  </g>
  <g>
    <g>
      <path d="M404.848,328.124H345.58c-4.316,0-7.812,3.5-7.812,7.812s3.496,7.812,7.812,7.812h59.268c4.312,0,7.812-3.5,7.812-7.812 S409.16,328.124,404.848,328.124z" style="fill: rgb(171, 43, 43);"/>
    </g>
  </g>
  <g>
    <g>
      <path d="M310.48,328.128H98.952c-4.316,0-7.812,3.5-7.812,7.812s3.496,7.812,7.812,7.812H310.48c4.316,0,7.812-3.5,7.812-7.812 S314.796,328.128,310.48,328.128z" style="fill: rgb(181, 182, 184);"/>
    </g>
  </g>
  <g>
    <g>
      <path d="M158.224,406.248H98.952c-4.316,0-7.812,3.5-7.812,7.812s3.496,7.812,7.812,7.812h59.268c4.312,0,7.812-3.5,7.812-7.812 S162.536,406.248,158.224,406.248z" style="fill: rgb(22, 161, 236);"/>
    </g>
  </g>
  <g>
    <g>
      <path d="M404.848,406.248H193.316c-4.312,0-7.812,3.5-7.812,7.812s3.5,7.812,7.812,7.812h211.532c4.312,0,7.812-3.5,7.812-7.812 S409.16,406.248,404.848,406.248z" style="fill: rgb(181, 182, 184);"/>
    </g>
  </g>
  <g>
    <g>
      <path d="M425.78,0H74.216C61.272,0,50.78,10.496,50.78,23.436V476.56c0,12.944,10.492,23.436,23.436,23.436H425.78 c12.94,0,23.436-10.496,23.436-23.436V23.436C449.216,10.492,438.72,0,425.78,0z M410.412,26.288 c2.928-2.888,8.124-2.888,11.056,0c1.484,1.444,2.304,3.48,2.304,5.508c0,2.072-0.82,4.064-2.304,5.548 c-1.444,1.444-3.432,2.264-5.508,2.264c-2.072,0-4.064-0.82-5.508-2.264c-1.484-1.484-2.304-3.476-2.304-5.548 C408.148,29.764,408.968,27.732,410.412,26.288z M383.072,26.288c2.968-2.888,8.124-2.888,11.056,0 c1.484,1.444,2.304,3.48,2.304,5.508c0,2.072-0.82,4.064-2.304,5.548c-1.444,1.444-3.432,2.264-5.508,2.264 c-2.072,0-4.064-0.82-5.508-2.264c-1.484-1.484-2.304-3.476-2.304-5.548C380.804,29.764,381.624,27.732,383.072,26.288z M355.728,26.288c2.968-2.888,8.124-2.888,11.056,0c1.484,1.444,2.304,3.48,2.304,5.508c0,2.072-0.82,4.064-2.304,5.548 c-1.444,1.444-3.432,2.264-5.508,2.264c-2.072,0-4.064-0.82-5.508-2.264c-1.484-1.484-2.304-3.476-2.304-5.548 C353.46,29.764,354.28,27.732,355.728,26.288z M328.384,26.288c2.968-2.888,8.124-2.888,11.056,0 c1.484,1.444,2.304,3.48,2.304,5.508c0,2.072-0.82,4.064-2.304,5.548c-1.444,1.444-3.432,2.264-5.508,2.264 c-2.072,0-4.064-0.82-5.548-2.264c-1.444-1.484-2.264-3.476-2.264-5.548C326.116,29.764,326.936,27.732,328.384,26.288z M301.04,26.288c2.968-2.888,8.124-2.888,11.056,0c1.484,1.444,2.304,3.48,2.304,5.508c0,2.072-0.82,4.064-2.304,5.548 c-1.444,1.444-3.432,2.264-5.508,2.264c-2.072,0-4.064-0.82-5.548-2.264c-1.444-1.484-2.264-3.476-2.264-5.548 C298.772,29.764,299.592,27.732,301.04,26.288z M273.696,26.288c2.968-2.888,8.124-2.888,11.056,0 c1.484,1.444,2.304,3.48,2.304,5.508c0,2.072-0.82,4.064-2.304,5.548c-1.444,1.444-3.432,2.264-5.508,2.264 c-2.072,0-4.064-0.82-5.548-2.264c-1.444-1.484-2.264-3.476-2.264-5.548C271.428,29.764,272.248,27.732,273.696,26.288z M246.356,26.288c2.964-2.888,8.12-2.888,11.052,0c1.484,1.444,2.304,3.48,2.304,5.508c0,2.072-0.82,4.064-2.304,5.548 c-1.444,1.444-3.432,2.264-5.504,2.264c-2.076,0-4.064-0.82-5.548-2.264c-1.444-1.484-2.264-3.476-2.264-5.548 C244.088,29.764,244.912,27.732,246.356,26.288z M219.012,26.288c2.964-2.888,8.124-2.888,11.056,0 c1.484,1.444,2.304,3.48,2.304,5.508c0,2.072-0.82,4.064-2.304,5.548c-1.444,1.444-3.436,2.264-5.508,2.264 c-2.076,0-4.064-0.82-5.548-2.264c-1.444-1.484-2.264-3.476-2.264-5.548C216.748,29.764,217.568,27.732,219.012,26.288z M191.668,26.288c2.964-2.888,8.124-2.888,11.056,0c1.484,1.444,2.304,3.48,2.304,5.508c0,2.072-0.82,4.064-2.304,5.548 c-1.444,1.444-3.436,2.264-5.508,2.264c-2.076,0-4.064-0.82-5.548-2.264c-1.444-1.484-2.264-3.476-2.264-5.548 C189.404,29.764,190.224,27.732,191.668,26.288z M164.324,26.288c2.964-2.888,8.124-2.888,11.056,0 c1.484,1.444,2.304,3.48,2.304,5.508c0,2.072-0.82,4.064-2.304,5.548c-1.444,1.444-3.436,2.264-5.508,2.264 c-2.076,0-4.064-0.82-5.548-2.264c-1.444-1.484-2.264-3.476-2.264-5.548C162.06,29.764,162.88,27.732,164.324,26.288z M136.98,26.288c2.964-2.888,8.124-2.888,11.056,0c1.484,1.444,2.304,3.48,2.304,5.508c0,2.072-0.82,4.064-2.304,5.548 c-1.444,1.444-3.436,2.264-5.508,2.264c-2.076,0-4.064-0.82-5.548-2.264c-1.444-1.484-2.264-3.476-2.264-5.548 C134.716,29.764,135.536,27.732,136.98,26.288z M109.636,26.288c2.964-2.888,8.124-2.888,11.056,0 c1.484,1.444,2.304,3.48,2.304,5.508c0,2.072-0.82,4.064-2.304,5.548c-1.444,1.444-3.436,2.264-5.508,2.264 c-2.076,0-4.064-0.82-5.548-2.264c-1.444-1.484-2.264-3.476-2.264-5.548C107.372,29.764,108.192,27.732,109.636,26.288z M82.292,26.288c2.964-2.888,8.124-2.888,11.056,0c1.484,1.444,2.304,3.48,2.304,5.508c0,2.072-0.82,4.064-2.304,5.548 c-1.444,1.444-3.436,2.264-5.508,2.264c-2.076,0-4.064-0.82-5.548-2.264c-1.444-1.484-2.264-3.476-2.264-5.548 C80.028,29.764,80.848,27.732,82.292,26.288z M433.592,476.888h-0.004c0,4.308-1.552,7.488-5.86,7.488H76.068 c-4.304,0-9.664-3.18-9.664-7.488V62.5h367.188V476.888z" style="fill: rgb(0, 171, 149);"/>
    </g>
  </g>
  <g/>
  <g/>
  <g/>
  <g/>
  <g/>
  <g/>
  <g/>
  <g/>
  <g/>
  <g/>
  <g/>
  <g/>
  <g/>
  <g/>
  <g/>
</svg>